PathFileType	4	(X/Y/Z)	7_coords_data.trc
DataRate	CameraRate	NumFrames	NumMarkers	Units	OrigDataRate	OrigDataStartFrame	OrigNumFrames
30.0	30.0	4	21	m	30.0	10	65
Frame#	Time	THUMB_TIP	THUMB_IP	THUMB_MCP	THUMB_CMC	INDEX_TIP	INDEX_DIP	INDEX_PIP	INDEX_MCP	MIDDLE_TIP	MIDDLE_DIP	MIDDLE_PIP	MIDDLE_MCP	RING_TIP	RING_DIP	RING_PIP	RING_MCP	PINKY_TIP	PINKY_DIP	PINKY_PIP	PINKY_MCP	WRIST
X1	Y1	Z1	X2	Y2	Z2	X3	Y3	Z3	X4	Y4	Z4	X5	Y5	Z5	X6	Y6	Z6	X7	Y7	Z7	X8	Y8	Z8	X9	Y9	Z9	X10	Y10	Z10	X11	Y11	Z11	X12	Y12	Z12	X13	Y13	Z13	X14	Y14	Z14	X15	Y15	Z15	X16	Y16	Z16	X17	Y17	Z17	X18	Y18	Z18	X19	Y19	Z19	X20	Y20	Z20	X21	Y21	Z21
8	0.2999999999999987	0.46605052577145345	-0.03812413382269675	-0.1739016196241947	0.47247953240577933	-0.04107509017146216	-0.15203932948058274	0.46503053638057934	-0.038736312966426434	-0.12190857145158918	0.46788782323769107	-0.03459333715141333	-0.07758519541577258	0.559796440504212	0.03040373991944678	-0.17798763646371535	0.5490116164385275	0.0215710272040589	-0.1664260294837296	0.5346416680495046	0.009124180087374145	-0.14997639686926967	0.5115530646747652	-0.009554736125923391	-0.11945344522136092	0.583142135938918	0.05653468920121285	-0.1403949030404873	0.5692063125721842	0.049282518294575084	-0.1313838629100632	0.5481949395582453	0.03355148635458882	-0.11871633007323001	0.5225607744031976	0.0014575958530306243	-0.10113737418052315	0.599004183758011	0.04548098742826501	-0.098651113425266	0.5840466567737896	0.03649652661800984	-0.0941176985462504	0.5646771904358465	0.021710497341928203	-0.08898183532473158	0.5339848839049205	-0.003644724474825778	-0.0819237987397542	0.6015476371642958	0.011783504588772975	-0.04108594151712763	0.5865138063785258	0.0047941576913616	-0.04534422307809505	0.5677729612745598	-0.002861789029561135	-0.0509101213520079	0.534817853297376	-0.012875856303893984	-0.0616135210846771	0.4622830810018609	-0.023011742144276925	-0.051989820119430985
9	0.33333333333333187	0.4663827518988144	-0.03842274966931458	-0.17387851758268585	0.4727114888724214	-0.041280639973385935	-0.15197464688984264	0.4651505031730022	-0.038857716983881185	-0.12187845212306003	0.4679382804183696	-0.03462669643994676	-0.07755896698179265	0.5599957198564329	0.030262047990112007	-0.17793686647874357	0.5491697850070325	0.021474047690353548	-0.1663796096516248	0.5347559075705943	0.009074906669784388	-0.1499323827668464	0.5115858903430137	-0.009526564898898915	-0.1194238323071295	0.5831601040958896	0.05675561736099832	-0.14014015201200047	0.5692287550406452	0.049440109356089446	-0.13117349956356383	0.5482285125636932	0.03362992238128193	-0.1185863094986267	0.522582162525364	0.0015008686625119783	-0.10108955100318262	0.5988364429658768	0.04580630984214451	-0.09856450719474585	0.5839362462907298	0.03671723226500012	-0.09405088250514326	0.5646235826436818	0.02185397315188564	-0.08892403840839014	0.533988350725636	-0.0035705571487992804	-0.08186736367328229	0.6015405722390457	0.011884992472494194	-0.04097942985942604	0.5864833648617893	0.004939931320676272	-0.045227562578139646	0.5677441770616499	-0.002709982317014914	-0.05080731892828372	0.5348113709173599	-0.012763104065677267	-0.06154270311186949	0.4622830810018609	-0.023011742144276925	-0.051989820119430985
10	0.3666666666666651	0.4667107955877202	-0.038736560335474235	-0.17385296965829278	0.4729481093498217	-0.04148745399475118	-0.15190921197852314	0.4652714547155603	-0.038975499531019864	-0.12184962019156742	0.46799371634301756	-0.034652391543179006	-0.07753494960769491	0.5601800987166288	0.030124927379976296	-0.17790063220829733	0.5493129366328411	0.02138398065514069	-0.16634638456518885	0.5348459075264139	0.009042249777988953	-0.14990264469891312	0.511597346729867	-0.009481171777319997	-0.11940636019122952	0.5831038378739888	0.05706851126725365	-0.13991266211093567	0.5691874961295914	0.04966679565639276	-0.13099357928426114	0.5482126802306356	0.033757601994679254	-0.11848901191713446	0.5225692090437805	0.0015886010077778012	-0.10106157142824834	0.5986373089984287	0.04617964252635265	-0.09853769454096617	0.5837924101513192	0.03699520248510757	-0.09403491325071134	0.5645335591037346	0.02206357896977651	-0.08890429393883914	0.5339693465634922	-0.0034409361222931256	-0.08182831657077971	0.6014886977397262	0.012144303365203002	-0.04091234910867103	0.5864171227636212	0.005221038953450163	-0.04514508316889776	0.5676890453933376	-0.0024528112747306263	-0.05072927153320972	0.5347940560280888	-0.012597251149590205	-0.06149465426145184	0.4622830810018608	-0.023011742144276925	-0.051989820119430985
11	0.39999999999999825	0.46698221875208346	-0.03902118391392018	-0.17382044914430722	0.47313830789407496	-0.041685786349466514	-0.15184313219395273	0.4653640089646739	-0.039088560816396	-0.12181589962605399	0.46804431916459166	-0.03469086116392717	-0.07750601162124304	0.560323485536766	0.029977932585397493	-0.17789509750837446	0.5494126155449293	0.021286615751330618	-0.1663446028128604	0.534901690788863	0.008999920714114817	-0.14989832600665765	0.5115881827291264	-0.009449337120518542	-0.11940666614203532	0.5830431778938976	0.057340975974740416	-0.13974407234146502	0.5691473433383063	0.049849080494759335	-0.1308684155139015	0.5481939420419385	0.033854769177553146	-0.11843674106507274	0.522539755086509	0.001668049630371815	-0.10105785452286398	0.5984592638822814	0.0464580905394848	-0.09858536430656373	0.5836604112861775	0.03720268958815576	-0.09407631617320689	0.5644418467683711	0.022224613060304987	-0.08893005729896031	0.5339449102759625	-0.0033535107321738256	-0.08182954451222202	0.601440018312071	0.012385739771297977	-0.040936359420064794	0.5863559008687513	0.005476056429594034	-0.045146546716791525	0.5676387351259637	-0.0022322142134414413	-0.050719902012368756	0.5347792389346996	-0.012488406677020225	-0.06148779304108587	0.4622830810018609	-0.023011742144276925	-0.051989820119430985
